<?xml version="1.0" standalone="no"?>
<!DOCTYPE svg PUBLIC "-//W3C//DTD SVG 20010904//EN"
 "http://www.w3.org/TR/2001/REC-SVG-20010904/DTD/svg10.dtd">
<svg version="1.0" xmlns="http://www.w3.org/2000/svg"
 width="600.000000pt" height="600.000000pt" viewBox="0 0 600.000000 600.000000"
 preserveAspectRatio="xMidYMid meet">

<g transform="translate(0.000000,600.000000) scale(0.100000,-0.100000)"
fill="#000000" stroke="none">
<path d="M2790 5629 c-124 -12 -249 -35 -326 -61 -50 -16 -73 -32 -127 -87
-74 -75 -166 -200 -207 -281 -36 -71 -83 -208 -100 -286 -6 -34 -15 -66 -19
-71 -3 -5 -35 -33 -71 -62 -151 -124 -297 -285 -377 -417 -91 -151 -112 -281
-61 -385 29 -58 123 -161 171 -185 15 -8 27 -16 27 -18 0 -8 -55 -137 -77
-179 -21 -42 -33 -53 -86 -77 -71 -32 -148 -50 -212 -50 -25 0 -45 -4 -45 -8
0 -15 109 -74 172 -93 35 -11 97 -21 140 -22 l78 -2 -57 -50 c-178 -155 -352
-383 -395 -518 -12 -37 -22 -104 -25 -168 -8 -145 23 -429 46 -429 5 0 18 35
31 78 42 145 117 280 207 372 8 8 -17 -49 -56 -126 -84 -169 -123 -282 -161
-465 -45 -217 -47 -272 -16 -424 35 -167 61 -261 91 -327 l24 -53 1 100 c0
110 16 198 51 290 22 59 23 59 30 30 4 -16 12 -73 18 -125 11 -96 47 -258 61
-273 4 -5 17 18 29 50 12 32 31 74 41 93 l19 35 1 -35 c0 -40 20 -118 44 -174
l16 -39 -58 -61 c-70 -72 -92 -113 -143 -259 -26 -76 -39 -102 -44 -88 -3 10
-12 24 -20 31 -37 31 -76 -146 -76 -348 1 -175 25 -318 58 -339 13 -8 23 -25
24 -37 0 -21 1 -21 11 2 16 33 31 22 47 -36 10 -39 19 -52 32 -52 23 0 23 -3
4 50 l-15 42 31 -6 c17 -3 40 -6 50 -6 16 0 19 -8 19 -42 0 -32 3 -39 10 -28
5 8 10 25 10 38 0 12 4 22 8 22 37 0 180 -24 190 -32 6 -6 12 -7 12 -2 0 5 64
9 143 9 116 0 148 -3 174 -18 41 -22 43 -22 43 6 0 22 6 25 97 40 108 18 113
16 113 -40 0 -29 3 -33 26 -33 20 0 25 4 20 16 -10 27 -26 144 -26 197 0 57
22 64 48 15 43 -80 73 -86 138 -26 32 29 54 41 75 41 57 0 104 -76 77 -126 -6
-12 -29 -42 -51 -66 -26 -28 -36 -46 -28 -49 30 -10 111 95 111 145 0 62 -55
123 -110 123 -28 0 -70 -22 -99 -54 -35 -37 -57 -33 -81 14 -24 47 -51 64 -90
55 -27 -6 -29 -4 -35 27 -3 18 -12 65 -20 103 l-15 70 6 -80 c3 -44 8 -89 11
-100 8 -28 0 -18 -41 53 -21 34 -39 62 -41 62 -4 0 37 -117 84 -239 11 -30 19
-57 16 -59 -11 -11 -237 -42 -355 -48 -100 -5 -170 -2 -272 10 -122 15 -321
56 -333 68 -6 6 -33 198 -28 198 2 0 59 -11 126 -24 211 -42 565 -57 641 -26
15 6 3 9 -42 9 l-63 1 3 37 c3 33 10 42 56 73 61 40 81 70 82 120 0 42 -30 95
-59 103 -41 10 -84 -26 -111 -92 -28 -70 -43 -83 -82 -75 -54 11 -88 -36 -88
-125 l0 -34 -97 7 c-108 8 -349 42 -365 52 -14 9 -5 238 13 317 13 63 22 60
33 -8 8 -46 21 -67 54 -84 30 -16 91 1 123 35 21 22 24 35 24 101 0 85 9 96
73 92 62 -3 72 0 82 27 8 21 5 37 -15 81 -31 68 -31 72 0 133 29 56 31 89 10
129 -14 28 -14 28 34 55 27 14 103 48 170 75 l121 48 77 -27 c69 -24 83 -33
120 -81 59 -74 94 -144 143 -284 52 -148 86 -209 162 -291 56 -60 146 -134
163 -134 4 0 0 11 -9 25 -21 32 -20 35 8 35 15 0 38 15 62 40 21 22 42 40 46
40 4 0 8 -59 8 -132 l0 -131 20 18 c12 10 30 33 41 51 l20 32 56 -34 c32 -19
61 -41 66 -49 5 -9 1 -39 -8 -73 -23 -82 -17 -140 18 -165 43 -33 94 -26 134
17 18 20 35 36 37 36 6 0 25 -74 37 -145 l12 -69 39 44 c106 121 184 259 212
377 l14 58 2 -125 c1 -122 2 -124 17 -90 41 92 136 278 153 300 l20 25 0 -40
c0 -22 -6 -68 -14 -103 l-13 -63 44 43 c95 92 234 341 255 456 6 34 15 62 19
62 12 0 39 -97 39 -139 l1 -36 15 28 c28 52 54 178 54 264 0 84 0 84 23 72 38
-20 171 -163 196 -211 30 -57 24 -67 -59 -97 -52 -19 -90 -50 -90 -73 0 -4 18
-28 40 -53 60 -70 53 -88 -43 -103 -63 -10 -97 -33 -97 -67 0 -40 17 -45 121
-39 124 9 151 2 147 -34 -2 -19 -17 -36 -55 -62 -60 -40 -72 -63 -47 -91 28
-31 77 -24 160 21 40 22 75 37 77 33 3 -4 7 -28 8 -52 l4 -45 -115 -17 c-63
-10 -142 -24 -175 -32 -91 -22 -25 -21 133 3 74 11 140 20 148 20 11 0 14 -16
14 -69 l0 -68 -127 -7 c-71 -3 -179 -9 -240 -13 l-113 -6 0 44 c0 24 13 91 30
149 35 126 36 141 5 75 l-23 -50 -2 80 c-2 70 -3 75 -10 40 -5 -22 -16 -114
-26 -205 -9 -91 -19 -186 -22 -212 -4 -39 -2 -48 11 -48 11 0 17 15 22 55 7
53 9 55 37 55 17 0 27 -4 23 -10 -11 -18 6 -51 33 -61 l27 -11 -30 -13 c-27
-12 -19 -13 91 -14 104 -1 123 1 128 15 4 9 0 24 -8 33 -8 9 -16 27 -18 41 -3
24 0 25 55 28 l57 3 0 -61 c0 -61 14 -81 26 -35 6 25 7 25 26 8 20 -18 20 -18
13 33 l-7 51 37 7 37 7 -7 152 c-4 84 -9 154 -11 156 -2 2 -19 4 -38 3 l-35
-1 -5 57 c-15 151 -29 230 -55 307 l-28 84 21 20 21 21 -25 48 c-13 26 -64 87
-113 136 -100 100 -98 91 -50 221 35 94 119 265 127 258 13 -13 1 -119 -30
-268 -12 -60 15 -9 92 170 98 230 96 223 103 335 l6 95 26 -45 c15 -25 39 -85
54 -135 l28 -90 18 43 c28 66 52 197 47 263 -2 32 -2 59 0 59 3 0 26 -14 52
-30 61 -39 162 -80 198 -80 18 0 42 12 65 33 l38 33 -14 52 c-11 42 -20 58
-51 78 -21 15 -55 31 -75 36 -20 5 -57 23 -82 39 l-45 29 -11 106 c-15 142
-44 199 -160 320 -86 89 -176 225 -140 211 19 -7 71 7 104 28 l25 17 -70 71
c-107 111 -114 130 -123 332 -8 175 -27 292 -60 357 l-18 36 39 20 40 19 33
-40 c34 -41 34 -41 60 -24 29 19 42 62 32 107 -9 40 -63 97 -101 106 -16 3
-34 12 -40 20 -6 7 -33 14 -60 16 l-49 3 84 29 c111 38 368 168 419 212 73 62
65 86 -53 167 -93 63 -400 246 -507 302 l-95 49 -13 51 c-29 112 -159 430
-236 574 -59 111 -128 208 -162 225 -37 19 -212 62 -357 87 -139 24 -460 34
-615 18z m290 -25 c0 -3 -5 -14 -11 -25 -6 -11 -8 -25 -6 -32 2 -7 11 3 21 21
16 31 18 32 81 32 144 0 440 -54 477 -87 11 -10 41 -53 65 -96 25 -43 47 -76
49 -74 7 6 -33 93 -60 134 -14 20 -24 38 -22 40 1 2 24 -4 49 -13 77 -26 141
-123 257 -389 73 -168 130 -310 151 -378 16 -54 16 -58 1 -51 -117 50 -488
138 -632 148 -98 7 -56 -5 115 -34 150 -26 383 -88 490 -130 126 -50 633 -348
718 -422 l32 -28 -35 -30 c-49 -43 -210 -131 -336 -185 -58 -25 -109 -45 -113
-45 -5 0 8 37 27 83 29 65 37 95 37 143 l0 62 35 -5 c37 -5 141 -28 175 -37
11 -4 4 1 -15 10 -19 9 -82 27 -140 40 -95 22 -133 25 -395 29 -321 5 -419 12
-865 57 -376 38 -705 44 -884 15 -228 -36 -342 -74 -512 -168 -92 -51 -184
-121 -184 -140 0 -5 21 7 47 27 25 19 64 44 86 55 33 17 39 18 34 5 -11 -29
-56 -181 -74 -250 -10 -38 -23 -71 -28 -73 -16 -5 -114 83 -157 140 -58 77
-59 106 -9 172 48 64 43 71 -12 18 l-39 -38 6 40 c14 82 27 104 107 179 43 41
79 77 79 81 0 8 -56 -30 -94 -64 l-29 -26 19 33 c28 49 138 185 208 257 53 55
72 67 149 95 48 18 87 34 87 36 0 5 -59 -6 -92 -16 -16 -5 -28 -8 -28 -6 0 14
148 116 200 137 180 76 448 119 740 119 194 0 285 -7 560 -44 57 -8 106 -13
108 -11 7 6 -185 47 -287 60 -430 56 -739 37 -1048 -64 -82 -26 -113 -33 -113
-23 0 19 40 176 48 190 11 17 171 60 288 76 58 8 109 18 113 22 15 16 -210 -7
-290 -30 -46 -13 -86 -22 -89 -20 -2 3 8 29 24 59 51 98 124 199 198 275 l74
76 98 22 c54 13 100 21 103 19 2 -3 -7 -22 -22 -42 -14 -21 -25 -43 -24 -49 0
-6 8 0 17 14 9 14 31 40 47 57 30 33 30 33 165 41 173 12 260 13 260 6z m160
-1304 c11 0 11 -3 -3 -17 -15 -15 -21 -16 -38 -5 -27 17 -50 8 -76 -31 -28
-41 -29 -82 -3 -124 22 -37 35 -40 69 -17 19 14 26 14 48 3 32 -17 54 -3 71
46 9 28 10 40 1 45 -6 4 -12 28 -13 53 l-2 46 31 -6 c16 -3 40 -12 52 -19 12
-8 28 -11 36 -9 8 4 18 -4 25 -19 6 -14 23 -33 37 -42 25 -16 27 -16 54 4 32
23 41 20 41 -14 0 -13 4 -25 9 -28 5 -3 69 14 142 39 161 54 247 61 280 23 64
-76 209 -256 209 -261 0 -3 -19 3 -43 13 -99 44 -247 47 -337 8 -56 -24 -82
-48 -131 -119 -43 -63 -52 -69 -114 -69 -51 0 -78 20 -146 106 -37 47 -45 63
-38 80 11 30 -19 88 -48 92 -28 4 -29 -13 -4 -55 l20 -31 -48 29 c-52 33 -152
53 -227 47 -36 -3 -44 0 -44 14 0 9 -4 20 -10 23 -5 3 -10 17 -10 31 0 15 -6
24 -15 24 -23 0 -19 47 5 53 11 3 20 14 20 24 0 15 17 26 73 46 39 14 81 24
92 22 11 -3 27 -5 35 -5z m-987 -19 c7 -7 3 -26 -10 -58 -17 -42 -25 -50 -66
-64 -59 -21 -116 -67 -162 -128 -64 -88 -82 -174 -44 -212 19 -19 29 -21 83
-16 33 3 94 18 135 32 102 34 102 34 87 -17 -10 -38 -17 -45 -58 -60 -79 -29
-218 -49 -260 -38 -44 13 -85 58 -94 104 -7 42 16 127 58 210 37 73 123 210
143 226 39 33 163 46 188 21z m2153 -57 c3 -13 3 -40 0 -59 -8 -39 -62 -175
-76 -189 -16 -16 -12 42 6 75 8 17 15 53 16 81 0 67 -25 101 -78 107 l-39 5
50 5 c81 9 114 2 121 -25z m-2062 -26 c-17 -58 -24 -67 -39 -62 -22 9 -19 24
12 56 32 34 36 35 27 6z m1977 -25 c10 -27 5 -87 -10 -111 -6 -10 -22 6 -56
53 -26 36 -44 69 -41 72 3 3 21 -4 41 -16 33 -19 36 -19 34 -4 -4 43 16 46 32
6z m-2116 -85 l-7 -53 33 48 32 48 24 -24 c24 -23 24 -28 18 -116 -6 -69 -12
-94 -24 -100 -9 -4 -67 -21 -129 -36 -135 -34 -168 -29 -166 22 4 76 84 192
169 244 49 31 56 26 50 -33z m611 1 c4 -7 23 -9 49 -6 37 6 44 4 48 -13 3 -13
14 -20 29 -20 15 0 1 -9 -37 -25 -33 -14 -80 -39 -105 -56 -42 -30 -120 -51
-120 -33 0 23 104 164 121 164 4 0 11 -5 15 -11z m427 -115 c105 -24 175 -65
219 -128 18 -25 14 -23 -21 11 -23 23 -51 45 -62 48 -10 4 -19 11 -19 17 0 6
-3 9 -6 5 -3 -3 -25 2 -47 10 -69 27 -282 24 -380 -5 -42 -13 -81 -21 -86 -17
-5 3 -11 0 -13 -7 -3 -7 -37 -13 -95 -16 l-91 -4 -6 -37 c-3 -20 -6 -53 -6
-74 0 -27 -4 -37 -12 -35 -9 3 -14 32 -16 89 l-3 84 93 1 c80 1 107 7 193 37
87 31 112 36 193 37 51 0 125 -7 165 -16z m897 -33 c36 -11 85 -26 110 -36 25
-9 71 -17 103 -16 l57 1 0 -49 c0 -27 2 -64 5 -82 3 -23 -1 -18 -11 17 l-16
51 -77 28 c-186 66 -232 77 -311 72 -92 -6 -184 -36 -256 -84 -30 -20 -57 -34
-59 -31 -7 7 83 81 123 102 85 44 229 55 332 27z m-905 -52 c70 -26 106 -57
130 -108 15 -35 16 -47 7 -80 -17 -56 -45 -86 -108 -117 -80 -39 -185 -45
-247 -14 -176 88 -156 266 36 326 61 19 119 17 182 -7z m-306 -41 c-79 -87
-93 -100 -97 -88 -6 18 39 76 82 104 56 36 60 33 15 -16z m1170 26 c102 -30
161 -113 131 -184 -30 -72 -143 -127 -241 -118 -102 10 -189 97 -175 173 12
61 74 117 151 136 48 11 78 10 134 -7z m-265 -46 c-40 -45 -54 -58 -67 -58
-17 0 16 42 55 70 23 17 43 30 46 30 2 0 -13 -19 -34 -42z m-1183 -138 c38 0
84 -34 128 -94 22 -30 45 -57 50 -61 6 -3 8 -12 5 -20 -9 -23 45 -66 81 -65
57 3 58 2 36 -34 -12 -18 -21 -50 -21 -70 0 -34 2 -36 33 -36 18 0 43 7 55 16
19 13 22 22 16 47 -3 18 -14 40 -23 51 -15 18 -15 18 9 11 14 -4 32 -14 41
-22 9 -7 33 -17 53 -20 32 -5 38 -3 43 16 3 14 13 21 28 21 13 0 30 3 39 6 12
5 16 -1 16 -24 0 -17 13 -66 29 -109 32 -87 31 -126 -5 -198 -16 -32 -27 -41
-74 -55 -30 -9 -69 -24 -87 -33 -38 -20 -52 -22 -35 -5 7 7 12 20 12 30 0 30
-50 23 -83 -11 -26 -28 -32 -29 -112 -30 -69 -1 -94 -5 -132 -25 -85 -43 -123
-104 -123 -196 0 -32 -4 -49 -10 -45 -5 3 -10 15 -10 26 0 11 -7 22 -15 25 -8
4 -15 17 -15 30 0 18 6 24 21 24 21 0 21 16 3 83 -6 19 -68 25 -79 7 -4 -6
-14 -5 -28 4 -58 36 -107 23 -107 -29 0 -13 -8 -28 -17 -33 -14 -9 -15 -17 -5
-77 6 -38 16 -73 22 -79 5 -5 29 -9 52 -9 31 2 45 -3 55 -17 11 -15 26 -20 62
-20 26 0 52 5 58 11 9 9 13 5 18 -17 4 -16 11 -42 15 -57 6 -18 6 -26 -1 -21
-6 3 -23 1 -39 -6 -23 -10 -33 -9 -54 6 -22 13 -32 15 -51 6 -21 -10 -25 -18
-25 -57 0 -25 -4 -45 -10 -45 -16 0 -23 -49 -9 -66 9 -11 22 -13 49 -9 30 5
39 3 44 -10 4 -13 12 -15 29 -10 12 4 40 10 62 13 35 6 40 11 43 35 3 22 -1
30 -17 34 -24 6 -27 25 -7 42 11 10 20 1 45 -45 27 -50 31 -67 31 -136 0 -43
-2 -78 -4 -78 -3 0 -41 22 -86 49 -45 28 -97 55 -117 62 -57 18 -170 8 -231
-22 l-52 -26 0 34 c0 31 2 33 20 23 37 -20 74 -9 84 25 4 17 15 42 22 57 12
23 12 31 0 60 -7 18 -18 47 -23 63 -8 26 -13 30 -46 30 -35 0 -37 2 -33 25 21
113 19 116 -27 73 l-30 -28 8 40 c10 58 60 180 106 257 21 36 39 69 39 72 0 4
-23 -5 -51 -20 -55 -27 -73 -26 -45 4 9 11 14 26 10 36 -3 9 -1 23 6 31 10 12
16 13 28 3 12 -10 19 -7 43 22 16 19 29 39 29 45 0 16 -38 55 -54 55 -8 0 -16
12 -19 27 -7 38 19 80 53 85 23 3 31 -2 45 -29 23 -42 58 -52 88 -26 12 10 34
24 50 31 20 9 27 19 27 39 0 16 7 37 15 47 8 11 15 30 15 42 0 23 -38 54 -66
54 -11 0 -15 6 -11 20 3 10 -1 27 -7 36 -11 14 -7 26 20 72 19 30 36 64 40 74
5 18 7 18 23 4 10 -9 28 -16 42 -16z m1038 -49 c23 -27 41 -53 41 -58 0 -6
-54 -9 -127 -9 -85 1 -135 -3 -148 -11 -16 -10 -6 -11 56 -6 128 10 198 -3
276 -49 108 -66 337 -258 322 -272 -2 -2 -35 3 -74 12 -51 12 -125 16 -275 16
-226 1 -275 -7 -377 -65 l-53 -29 0 29 c0 15 -14 58 -30 95 -32 69 -50 156
-33 156 25 0 106 68 166 139 57 68 73 81 109 89 88 20 103 16 147 -37z m87
-92 c19 -22 19 -22 -3 -8 -13 8 -23 17 -23 21 0 12 6 9 26 -13z m464 -216 c49
-74 70 -137 70 -215 l0 -42 -28 27 c-15 15 -31 27 -35 27 -3 0 -3 -54 0 -120
3 -66 3 -120 0 -120 -15 0 -34 56 -26 75 16 41 11 58 -16 53 -24 -5 -25 -3
-25 41 0 25 -3 56 -6 69 -5 16 -2 22 9 22 9 0 27 10 41 23 20 17 26 33 28 70
2 53 -9 67 -54 67 -20 0 -31 -8 -43 -30 l-15 -30 -54 54 c-30 30 -82 77 -116
105 -43 36 -55 51 -42 51 11 0 26 -9 33 -21 8 -12 31 -24 54 -29 22 -4 47 -9
55 -11 11 -3 16 6 18 31 2 19 9 38 15 42 17 10 80 -54 137 -139z m-949 -394
c16 -11 57 -24 92 -29 164 -24 325 -73 407 -126 l56 -37 -1 -93 c0 -109 -4
-116 -85 -132 -146 -29 -253 -23 -418 24 -129 37 -198 74 -269 146 -59 60
-133 168 -133 194 0 7 12 17 28 23 22 9 14 10 -45 6 -40 -3 -85 -10 -100 -17
-37 -16 -83 -58 -83 -77 0 -11 6 -9 23 7 l23 21 12 -88 c18 -136 130 -429 181
-475 21 -19 22 -19 49 7 l28 27 79 -35 c265 -113 486 -80 824 123 82 50 84 50
109 34 14 -9 39 -17 55 -18 26 -2 27 -1 9 12 -10 7 -30 16 -45 19 -14 4 -33
15 -42 25 -15 16 -13 18 20 23 43 7 139 -24 172 -55 12 -12 34 -22 47 -24 13
-1 37 -10 53 -19 l28 -16 -40 5 c-24 3 -34 2 -25 -3 8 -5 44 -11 78 -15 41 -4
75 -14 94 -27 16 -12 44 -23 62 -24 26 -1 186 -79 186 -91 0 -5 -59 7 -105 22
-40 13 -40 13 -17 -6 13 -10 44 -21 70 -25 85 -10 136 -25 190 -58 54 -33 61
-50 23 -55 -13 -2 -26 -13 -28 -23 -3 -11 -11 -18 -18 -15 -10 4 -10 -2 1 -22
15 -29 19 -62 7 -62 -5 0 -35 16 -68 34 l-60 35 27 10 c15 6 35 8 43 5 8 -4
15 -1 15 5 0 14 -35 14 -75 0 -34 -13 -72 0 -125 41 -28 21 -24 29 22 41 26 7
22 7 -20 3 -47 -4 -60 -1 -135 38 -77 40 -80 43 -52 48 25 5 27 7 12 13 -10 4
-31 7 -45 7 -40 1 -105 34 -154 78 -40 36 -96 72 -115 72 -4 0 8 -13 27 -29
22 -19 31 -33 25 -38 -5 -5 -54 -42 -108 -82 -53 -41 -95 -76 -93 -79 3 -2 43
17 89 42 47 25 90 46 95 46 16 0 41 -75 54 -156 12 -79 2 -169 -26 -223 -13
-23 -14 -23 -26 28 -7 29 -14 51 -16 49 -1 -2 -10 -38 -19 -80 -25 -124 -60
-189 -128 -241 l-32 -24 2 121 c2 111 1 119 -12 91 -8 -16 -14 -36 -15 -43 0
-18 -34 -68 -79 -116 -34 -36 -270 -211 -275 -204 -4 4 21 139 29 163 6 14 -4
9 -31 -17 -21 -20 -72 -55 -111 -77 l-73 -39 0 35 c0 20 -4 52 -10 72 -5 20
-15 56 -21 80 l-10 43 -21 -41 c-13 -27 -36 -50 -64 -67 -48 -28 -64 -25 -64
11 0 13 -9 48 -21 77 -16 41 -20 67 -16 111 l5 57 -51 -37 c-29 -20 -66 -49
-83 -65 l-31 -29 -15 58 c-9 32 -27 90 -41 128 -26 74 -26 74 -48 8 -6 -19
-108 208 -119 266 -5 30 -10 79 -10 109 l0 55 27 -24 c14 -13 24 -19 21 -14
-3 6 -29 47 -56 93 -62 101 -91 185 -99 277 -7 94 8 145 60 199 61 63 98 71
271 57 76 -6 141 -9 144 -6 3 3 -4 5 -16 5 -52 0 -9 27 98 62 10 3 19 -7 28
-33 8 -21 27 -48 43 -60z m-1078 44 c8 -7 -11 -33 -23 -33 -5 0 -6 9 -3 20 5
20 15 25 26 13z m2014 -124 c72 -126 96 -186 91 -225 -2 -24 -13 -34 -58 -56
-76 -38 -197 -61 -288 -56 -40 3 -78 10 -84 16 -6 6 -12 46 -15 90 l-4 79 51
59 c58 67 232 216 241 206 3 -4 33 -55 66 -113z m-1285 -38 c33 -70 102 -149
182 -208 43 -32 87 -52 170 -77 210 -65 351 -80 476 -50 73 18 87 18 184 7
l69 -8 -112 -66 -111 -66 -81 19 -81 19 -80 -27 c-88 -29 -119 -26 -200 18
-32 18 -42 19 -82 9 -74 -18 -93 -15 -105 19 -5 17 -16 30 -23 30 -7 0 -44
-32 -82 -71 -79 -81 -78 -81 -117 20 -23 59 -30 186 -16 266 6 34 5 36 -4 15
l-11 -25 -16 35 c-28 65 -25 200 5 200 5 0 20 -27 35 -59z m-56 -173 c16 -50
26 -158 13 -158 -10 0 -49 136 -49 173 0 53 15 46 36 -15z m1319 -148 c8 -13
-5 -13 -25 0 -13 8 -13 10 2 10 9 0 20 -4 23 -10z m-1055 -98 c0 -5 6 -16 13
-26 11 -16 19 -16 80 -6 63 11 72 11 138 -14 86 -32 98 -32 187 -2 l72 25 60
-21 c33 -11 60 -22 60 -24 0 -7 -82 -41 -151 -64 -90 -29 -162 -33 -275 -16
-92 14 -264 69 -264 84 0 9 63 72 72 72 4 0 8 -4 8 -8z m1884 -375 c-4 -13 -2
-17 5 -13 7 4 11 -1 11 -13 0 -19 -10 -26 -32 -22 -5 0 -7 -5 -5 -11 1 -7 -10
-14 -24 -16 -19 -2 -28 3 -37 23 -10 21 -9 25 3 25 8 0 15 5 15 11 0 6 -6 9
-13 6 -8 -3 -14 4 -15 19 -1 19 3 24 21 24 12 0 29 5 37 10 20 13 42 -16 34
-43z m-2844 -637 c0 -5 -4 -10 -9 -10 -6 0 -13 5 -16 10 -3 6 1 10 9 10 9 0
16 -4 16 -10z m2004 -148 c4 -12 3 -22 -2 -22 -14 0 -19 18 -20 85 l0 60 7
-50 c5 -28 11 -61 15 -73z m-1578 -59 c16 -31 66 -111 112 -177 45 -66 82
-125 82 -131 0 -5 -21 -21 -47 -35 -27 -14 -57 -39 -68 -57 -11 -18 -23 -32
-26 -33 -7 0 -40 75 -58 130 -20 66 -43 360 -27 360 2 0 17 -26 32 -57z m-936
-73 c0 -12 10 -25 25 -32 31 -14 32 -28 2 -28 -13 0 -28 -5 -35 -12 -28 -28
-2 -96 40 -105 35 -7 50 -25 46 -55 -3 -20 -9 -23 -53 -26 -27 -1 -60 -4 -72
-7 -25 -6 -42 -50 -32 -85 12 -43 10 -64 -13 -100 -26 -43 -37 -24 -14 25 24
50 7 79 -39 72 -43 -7 -58 9 -46 49 27 92 86 215 128 267 50 61 63 69 63 37z
m2710 -265 c22 -57 23 -76 6 -69 -10 4 -25 -1 -36 -11 -11 -10 -21 -16 -23
-14 -1 2 -7 13 -13 24 -6 11 -21 21 -33 23 -35 6 -24 28 27 50 60 27 61 27 72
-3z m-1545 -41 c8 -20 15 -43 15 -51 0 -20 -68 -101 -91 -108 -23 -8 -56 9
-64 34 -9 31 40 123 77 143 45 23 46 23 63 -18z m1609 -244 c9 -74 16 -138 16
-142 0 -8 -64 -48 -77 -48 -5 0 -15 12 -22 26 -11 24 -8 29 31 64 39 34 42 40
33 66 -6 18 -23 35 -43 43 -39 18 -46 58 -9 63 16 2 23 11 25 33 10 101 27 63
46 -105z m-1402 73 c15 -32 63 -114 108 -183 89 -138 94 -164 44 -208 -35 -30
-77 -29 -103 4 -25 32 -26 48 -4 130 22 84 13 110 -49 141 -65 33 -73 50 -52
118 10 30 20 55 23 55 4 0 18 -26 33 -57z m-921 -53 c15 0 19 -7 19 -38 0 -47
-18 -73 -74 -106 -44 -26 -76 -81 -61 -106 3 -5 2 -10 -4 -10 -5 0 -12 9 -16
19 -9 29 -45 38 -62 15 -7 -10 -13 -24 -13 -32 0 -9 -6 -12 -16 -8 -9 3 -20 6
-26 6 -16 0 -5 120 13 130 10 7 16 4 21 -9 9 -24 62 -45 94 -37 20 5 24 10 15
19 -6 6 -11 23 -11 38 0 32 34 116 58 142 16 18 17 18 31 -2 7 -12 22 -21 32
-21z m2137 18 c24 -20 12 -28 -43 -28 -47 0 -55 3 -55 18 0 10 3 22 7 26 10 9
74 -2 91 -16z m226 -494 c5 -14 4 -15 -9 -4 -17 14 -19 20 -6 20 5 0 12 -7 15
-16z"/>
<path d="M3340 5504 c28 -37 58 -83 66 -103 8 -20 23 -54 34 -76 l19 -40 -6
35 c-7 52 -57 149 -104 203 -61 70 -67 57 -9 -19z"/>
<path d="M2344 4804 c-17 -14 -13 -15 60 -10 43 3 93 7 110 7 22 1 17 4 -19 9
-81 13 -130 11 -151 -6z"/>
<path d="M2596 4811 c-3 -5 27 -12 67 -16 39 -3 86 -8 102 -11 57 -9 3 14 -59
25 -72 13 -103 14 -110 2z"/>
<path d="M2861 4787 c-9 -11 11 -17 102 -30 61 -10 119 -17 127 -17 31 1 -14
17 -95 34 -44 9 -90 19 -101 21 -12 3 -27 -1 -33 -8z"/>
<path d="M2168 4781 c-27 -4 -53 -12 -60 -19 -15 -15 -9 -15 80 2 116 22 102
34 -20 17z"/>
<path d="M3222 4731 c-9 -5 13 -12 63 -20 104 -15 120 -12 55 9 -61 21 -98 24
-118 11z"/>
<path d="M3520 4690 c-8 -5 -10 -10 -5 -10 9 0 102 -14 170 -25 55 -9 3 12
-60 25 -33 6 -67 13 -75 15 -8 3 -22 0 -30 -5z"/>
<path d="M2479 4663 c-13 -15 -11 -16 20 -10 18 4 63 8 100 8 l66 2 -50 7
c-83 13 -121 11 -136 -7z"/>
<path d="M2721 4671 c-17 -11 17 -18 122 -24 81 -6 77 5 -7 22 -71 13 -96 14
-115 2z"/>
<path d="M2234 4653 c-12 -2 -30 -14 -40 -25 -19 -21 -19 -21 0 -14 10 3 60
14 110 22 50 9 93 18 95 20 5 5 -137 3 -165 -3z"/>
<path d="M2981 4651 c-21 -13 -3 -18 89 -24 l85 -6 -75 19 c-89 23 -82 22 -99
11z"/>
<path d="M3782 4651 c-8 -5 20 -12 74 -20 47 -7 88 -10 90 -8 6 6 -107 37
-132 37 -10 0 -25 -4 -32 -9z"/>
<path d="M3231 4617 c-12 -15 -1 -17 189 -43 45 -6 18 7 -60 29 -96 27 -116
29 -129 14z"/>
<path d="M4046 4601 c5 -5 32 -11 59 -14 l50 -6 -50 14 c-59 17 -73 19 -59 6z"/>
<path d="M2035 4593 c-11 -2 -30 -6 -42 -9 -12 -2 -27 -12 -32 -22 -9 -16 -3
-16 62 5 39 13 73 26 76 28 5 6 -35 5 -64 -2z"/>
<path d="M3521 4571 c-9 -6 19 -15 83 -26 53 -10 99 -15 102 -13 4 4 -154 49
-168 48 -2 0 -9 -4 -17 -9z"/>
<path d="M3760 4531 c-26 -8 -22 -8 145 -28 65 -7 52 6 -22 23 -63 15 -85 16
-123 5z"/>
<path d="M1820 4496 c-25 -13 -54 -34 -65 -46 -18 -20 -15 -20 31 6 102 58
129 89 34 40z"/>
<path d="M3995 4500 c-4 -6 6 -10 22 -11 15 0 54 -4 86 -8 69 -9 63 1 -11 17
-65 15 -89 15 -97 2z"/>
<path d="M2515 4480 c-4 -6 20 -10 67 -9 66 1 69 2 33 10 -55 11 -93 11 -100
-1z"/>
<path d="M2710 4481 c-18 -5 -3 -9 57 -14 46 -3 93 -2 105 3 20 8 19 9 -13 9
-20 1 -56 3 -80 6 -24 2 -55 1 -69 -4z"/>
<path d="M4260 4481 c-21 -14 -13 -17 80 -28 101 -12 127 -1 38 16 -35 7 -72
14 -83 17 -11 2 -27 0 -35 -5z"/>
<path d="M2267 4462 c-16 -18 -14 -18 65 -6 111 18 116 22 27 23 -61 1 -79 -2
-92 -17z"/>
<path d="M2925 4471 c-13 -5 2 -10 50 -14 96 -9 131 -9 120 2 -14 12 -146 22
-170 12z"/>
<path d="M3135 4451 c-21 -8 101 -22 184 -20 l46 1 -40 8 c-69 14 -169 20
-190 11z"/>
<path d="M2105 4436 c-56 -13 -75 -23 -75 -36 0 -8 146 33 158 44 8 9 -28 6
-83 -8z"/>
<path d="M3425 4431 l-20 -8 20 -6 c11 -3 61 -8 110 -11 l90 -5 -80 19 c-90
21 -93 22 -120 11z"/>
<path d="M3698 4403 c-20 -11 -15 -12 47 -13 39 0 80 -3 93 -6 12 -4 22 -2 22
3 0 18 -136 31 -162 16z"/>
<path d="M3915 4394 c-27 -12 -18 -13 85 -12 101 0 108 1 60 9 -104 16 -115
16 -145 3z"/>
<path d="M4172 4391 c-9 -5 3 -10 34 -15 73 -10 95 -6 49 9 -48 16 -66 17 -83
6z"/>
<path d="M1911 4369 c-49 -17 -107 -57 -97 -66 5 -5 155 68 162 78 7 12 -3 11
-65 -12z"/>
<path d="M4366 4362 c-5 -8 163 -46 171 -38 2 2 -21 13 -52 25 -57 21 -110 27
-119 13z"/>
<path d="M4605 4310 c-15 -6 -16 -9 -4 -9 9 -1 41 -9 73 -20 45 -15 54 -15 44
-4 -22 27 -85 45 -113 33z"/>
<path d="M1715 4268 c-46 -23 -73 -45 -86 -70 -10 -18 115 55 127 74 11 17 -1
16 -41 -4z"/>
<path d="M3915 4200 c-11 -12 -28 -19 -44 -18 -23 3 -26 -1 -24 -24 1 -16 -2
-28 -8 -28 -5 0 -9 -7 -9 -15 0 -8 7 -15 15 -15 8 0 15 -4 15 -10 0 -5 9 -10
19 -10 10 0 21 -7 24 -15 4 -8 18 -14 34 -14 15 1 37 -1 48 -3 14 -2 21 3 23
18 2 12 12 24 23 27 30 8 22 35 -16 51 -19 8 -35 22 -35 30 0 15 -26 46 -39
46 -4 0 -16 -9 -26 -20z"/>
<path d="M3682 4158 c-7 -7 -12 -19 -12 -28 0 -9 -5 -21 -12 -28 -20 -20 4
-35 36 -23 25 10 46 45 46 77 0 17 -41 19 -58 2z"/>
<path d="M3485 4110 c-14 -23 54 -105 72 -86 10 9 -7 56 -27 76 -22 22 -36 25
-45 10z"/>
<path d="M3751 4044 c-12 -15 -21 -37 -21 -51 0 -21 2 -22 21 -13 23 13 60 70
53 82 -10 16 -33 8 -53 -18z"/>
<path d="M3638 4013 c-21 -24 -30 -56 -22 -77 6 -16 8 -16 25 0 24 22 50 74
43 85 -8 14 -30 10 -46 -8z"/>
<path d="M3460 3991 c-11 -22 -13 -61 -4 -85 5 -12 20 -16 59 -16 30 0 57 4
60 10 10 16 -24 70 -58 90 -40 25 -44 25 -57 1z"/>
<path d="M2710 3610 c0 -26 46 -70 72 -70 16 0 17 3 7 23 -30 58 -79 87 -79
47z"/>
<path d="M2657 3502 c-36 -39 -6 -97 53 -104 19 -3 42 -8 51 -12 39 -17 29 81
-10 100 -12 7 -28 17 -34 23 -16 16 -42 13 -60 -7z"/>
<path d="M2707 3353 c-4 -3 -7 -19 -7 -35 0 -17 -5 -28 -13 -28 -8 0 -22 -9
-32 -20 -16 -18 -17 -25 -6 -60 15 -50 44 -78 89 -86 40 -8 62 12 62 53 0 15
6 23 18 23 23 0 42 19 42 43 0 31 -39 79 -59 72 -12 -4 -21 3 -29 20 -11 24
-49 35 -65 18z"/>
<path d="M3071 3261 c-8 -5 -20 -7 -28 -4 -39 15 -57 -53 -23 -87 25 -25 60
-25 93 0 14 11 32 17 41 14 24 -9 20 21 -6 50 -27 28 -57 39 -77 27z"/>
<path d="M2541 3120 c-47 -27 -54 -35 -46 -59 18 -56 72 -67 113 -23 15 16 35
31 46 35 16 6 16 10 5 24 -12 13 -71 45 -81 42 -2 0 -18 -9 -37 -19z"/>
<path d="M2818 3089 c-21 -12 -24 -29 -5 -29 7 0 18 -9 25 -20 13 -21 66 -28
76 -11 9 13 -43 71 -62 71 -10 0 -25 -5 -34 -11z"/>
<path d="M4121 3412 c-12 -22 -18 -89 -8 -98 4 -4 18 -1 32 6 27 15 34 55 15
91 -13 24 -26 24 -39 1z"/>
<path d="M4220 2385 c0 -2 10 -10 23 -16 20 -11 21 -11 8 4 -13 16 -31 23 -31
12z"/>
<path d="M4405 2330 c9 -15 45 -32 45 -22 0 5 -12 14 -26 20 -14 7 -23 8 -19
2z"/>
<path d="M4710 2168 c0 -5 4 -8 9 -8 5 0 15 -2 23 -5 7 -3 22 0 31 8 16 11 13
12 -23 12 -22 0 -40 -3 -40 -7z"/>
<path d="M3066 2144 c28 -13 66 -26 85 -29 29 -4 30 -4 9 4 -14 5 -49 18 -78
30 -70 28 -80 25 -16 -5z"/>
<path d="M1617 918 c-30 -11 -47 -52 -28 -71 8 -8 14 -9 19 -1 4 6 19 14 34
18 34 8 57 44 37 57 -17 11 -26 10 -62 -3z"/>
<path d="M2198 837 c-37 -35 -53 -90 -39 -138 18 -59 41 -59 98 2 60 64 67 81
48 125 -12 29 -19 34 -48 34 -22 0 -43 -8 -59 -23z"/>
<path d="M3968 604 c-59 -18 -80 -47 -82 -116 -1 -52 -1 -53 30 -56 24 -2 37
3 55 25 13 15 36 33 51 40 32 14 42 45 30 88 -10 36 -22 38 -84 19z m59 -68
c-4 -9 -18 -16 -31 -16 -17 0 -29 -8 -38 -27 -17 -36 -48 -43 -48 -11 0 37 33
80 70 93 31 11 36 10 44 -6 5 -10 6 -25 3 -33z"/>
</g>
</svg>
